# xmcd CD database file
#
# Track frame offsets:
#	150
#	13343
#	24358
#	42694
#	54090
#	66444
#	79975
#	92191
#	114925
#	132031
#	146200
#	168724
#	191385
#	220000
#	233460
#	249879
#	264822
#	278353
#
# Disc length: 3893 seconds
#
# Revision: 0
# Processed by: cddbd v1.5.2PL0 Copyright (c) Steve Scherf et al.
# Submitted via: CDex 1.51
#
DISCID=ef0f3312
DTITLE=Various Artist - Jazz 1 - CD2
DYEAR=2008
DGENRE=Jazz
TTITLE0=Nina Simone-Feeling Good
TTITLE1=Etta James-Fire
TTITLE2=Ray Charles and Count Basie Orchestra-I can't stop loving you
TTITLE3=Peggy Lee-I've got you under my skin
TTITLE4=Patty Page-The lady is a tramp
TTITLE5=Oscar Peterson Trio-Gee baby, ain't I good to you
TTITLE6=Sarah Vaughan-Take the A Train
TTITLE7=Billie Holliday-Do nothing till you hear from me
TTITLE8=Ella Fitzgerald-Cheek to Cheek
TTITLE9=Helen Merrill-Anything Goes
TTITLE10=Ella Fitzgerald and Louis Armstrong-Summertime
TTITLE11=Fred Astaire-Night and Day
TTITLE12=Dinah Washington-I get a kick out of you
TTITLE13=Rita Reys-That old black magic
TTITLE14=Wes Montgomery-Stairway to the Stars
TTITLE15=Louis Armstrong-Let's fall in love
TTITLE16=Shirley Horn-Do it again
TTITLE17=Etta James-At last
EXTD=YEAR: 2008
EXTT0=
EXTT1=
EXTT2=
EXTT3=
EXTT4=
EXTT5=
EXTT6=
EXTT7=
EXTT8=
EXTT9=
EXTT10=
EXTT11=
EXTT12=
EXTT13=
EXTT14=
EXTT15=
EXTT16=
EXTT17=
PLAYORDER=
